<svg xmlns="http://www.w3.org/2000/svg" version="1.1" xmlns:xlink="http://www.w3.org/1999/xlink" xmlns:svgjs="http://svgjs.dev/svgjs" width="1440" height="560" preserveAspectRatio="none" viewBox="0 0 1440 560"><g mask="url(&quot;#SvgjsMask1000&quot;)" fill="none"><rect width="1440" height="560" x="0" y="0" fill="rgba(255, 255, 255, 1)"></rect><g mask="url(&quot;#SvgjsMask1001&quot;)"><path d="M881.5 266.5L1168.5 266.5L1455.5 553.5" stroke-width="6.83" stroke="rgba(41, 148, 0, 1)"></path><path d="M871.25 266.5 a10.25 10.25 0 1 0 20.5 0 a10.25 10.25 0 1 0 -20.5 0zM1445.25 553.5 a10.25 10.25 0 1 0 20.5 0 a10.25 10.25 0 1 0 -20.5 0z" fill="rgba(41, 148, 0, 1)"></path><path d="M799.5 471.5L922.5 471.5L1086.5 307.5L1127.5 307.5L1373.5 553.5L1414.5 553.5" stroke-width="6.83" stroke="rgba(41, 148, 0, 1)"></path><path d="M789.25 471.5 a10.25 10.25 0 1 0 20.5 0 a10.25 10.25 0 1 0 -20.5 0zM1404.25 553.5 a10.25 10.25 0 1 0 20.5 0 a10.25 10.25 0 1 0 -20.5 0z" fill="rgba(41, 148, 0, 1)"></path><path d="M143.5 266.5L143.5 20.5" stroke-width="6.83" stroke="rgba(41, 148, 0, 1)"></path><path d="M133.25 266.5 a10.25 10.25 0 1 0 20.5 0 a10.25 10.25 0 1 0 -20.5 0zM133.25 20.5 a10.25 10.25 0 1 0 20.5 0 a10.25 10.25 0 1 0 -20.5 0z" fill="rgba(41, 148, 0, 1)"></path><path d="M266.5 143.5L389.5 20.5L1045.5 20.5" stroke-width="6.83" stroke="rgba(41, 148, 0, 1)"></path><path d="M256.25 143.5 a10.25 10.25 0 1 0 20.5 0 a10.25 10.25 0 1 0 -20.5 0zM1035.25 20.5 a10.25 10.25 0 1 0 20.5 0 a10.25 10.25 0 1 0 -20.5 0z" fill="rgba(41, 148, 0, 1)"></path><path d="M20.5 348.5L430.5 348.5L717.5 61.5L799.5 61.5" stroke-width="6.83" stroke="rgba(41, 148, 0, 1)"></path><path d="M10.25 348.5 a10.25 10.25 0 1 0 20.5 0 a10.25 10.25 0 1 0 -20.5 0zM789.25 61.5 a10.25 10.25 0 1 0 20.5 0 a10.25 10.25 0 1 0 -20.5 0z" fill="rgba(41, 148, 0, 1)"></path><path d="M594.5 471.5L471.5 348.5" stroke-width="6.83" stroke="rgba(41, 148, 0, 1)"></path><path d="M584.25 471.5 a10.25 10.25 0 1 0 20.5 0 a10.25 10.25 0 1 0 -20.5 0zM461.25 348.5 a10.25 10.25 0 1 0 20.5 0 a10.25 10.25 0 1 0 -20.5 0z" fill="rgba(41, 148, 0, 1)"></path><path d="M553.5 102.5L553.5 184.5L512.5 225.5L471.5 225.5L389.5 307.5L20.5 307.5" stroke-width="6.83" stroke="rgba(41, 148, 0, 1)"></path><path d="M543.25 102.5 a10.25 10.25 0 1 0 20.5 0 a10.25 10.25 0 1 0 -20.5 0zM10.25 307.5 a10.25 10.25 0 1 0 20.5 0 a10.25 10.25 0 1 0 -20.5 0z" fill="rgba(41, 148, 0, 1)"></path><path d="M1045.5 184.5L635.5 184.5L512.5 307.5L512.5 348.5L635.5 471.5L717.5 471.5" stroke-width="6.83" stroke="rgba(41, 148, 0, 1)"></path><path d="M1035.25 184.5 a10.25 10.25 0 1 0 20.5 0 a10.25 10.25 0 1 0 -20.5 0zM707.25 471.5 a10.25 10.25 0 1 0 20.5 0 a10.25 10.25 0 1 0 -20.5 0z" fill="rgba(41, 148, 0, 1)"></path><path d="M1250.5 553.5L1209.5 512.5L1004.5 512.5L963.5 553.5L471.5 553.5" stroke-width="6.83" stroke="rgba(41, 148, 0, 1)"></path><path d="M1240.25 553.5 a10.25 10.25 0 1 0 20.5 0 a10.25 10.25 0 1 0 -20.5 0zM461.25 553.5 a10.25 10.25 0 1 0 20.5 0 a10.25 10.25 0 1 0 -20.5 0z" fill="rgba(41, 148, 0, 1)"></path><path d="M143.5 512.5L184.5 471.5L553.5 471.5L594.5 512.5L922.5 512.5" stroke-width="6.83" stroke="rgba(41, 148, 0, 1)"></path><path d="M133.25 512.5 a10.25 10.25 0 1 0 20.5 0 a10.25 10.25 0 1 0 -20.5 0zM912.25 512.5 a10.25 10.25 0 1 0 20.5 0 a10.25 10.25 0 1 0 -20.5 0z" fill="rgba(41, 148, 0, 1)"></path><path d="M1373.5 102.5L1373.5 430.5L1455.5 512.5" stroke-width="6.83" stroke="rgba(41, 148, 0, 1)"></path><path d="M1363.25 102.5 a10.25 10.25 0 1 0 20.5 0 a10.25 10.25 0 1 0 -20.5 0zM1445.25 512.5 a10.25 10.25 0 1 0 20.5 0 a10.25 10.25 0 1 0 -20.5 0z" fill="rgba(41, 148, 0, 1)"></path><path d="M717.5 389.5L676.5 430.5L635.5 430.5L553.5 348.5L553.5 307.5L635.5 225.5L1127.5 225.5" stroke-width="6.83" stroke="rgba(41, 148, 0, 1)"></path><path d="M707.25 389.5 a10.25 10.25 0 1 0 20.5 0 a10.25 10.25 0 1 0 -20.5 0zM1117.25 225.5 a10.25 10.25 0 1 0 20.5 0 a10.25 10.25 0 1 0 -20.5 0z" fill="rgba(41, 148, 0, 1)"></path><path d="M963.5 61.5L1086.5 184.5L1332.5 184.5" stroke-width="6.83" stroke="rgba(41, 148, 0, 1)"></path><path d="M953.25 61.5 a10.25 10.25 0 1 0 20.5 0 a10.25 10.25 0 1 0 -20.5 0zM1322.25 184.5 a10.25 10.25 0 1 0 20.5 0 a10.25 10.25 0 1 0 -20.5 0z" fill="rgba(41, 148, 0, 1)"></path><path d="M1250.5 61.5L1332.5 143.5" stroke-width="6.83" stroke="rgba(41, 148, 0, 1)"></path><path d="M1240.25 61.5 a10.25 10.25 0 1 0 20.5 0 a10.25 10.25 0 1 0 -20.5 0zM1322.25 143.5 a10.25 10.25 0 1 0 20.5 0 a10.25 10.25 0 1 0 -20.5 0z" fill="rgba(41, 148, 0, 1)"></path><path d="M266.5 553.5L430.5 553.5L471.5 512.5L553.5 512.5" stroke-width="6.83" stroke="rgba(41, 148, 0, 1)"></path><path d="M256.25 553.5 a10.25 10.25 0 1 0 20.5 0 a10.25 10.25 0 1 0 -20.5 0zM543.25 512.5 a10.25 10.25 0 1 0 20.5 0 a10.25 10.25 0 1 0 -20.5 0z" fill="rgba(41, 148, 0, 1)"></path><path d="M840.5 389.5L840.5 266.5" stroke-width="6.83" stroke="rgba(41, 148, 0, 1)"></path><path d="M830.25 389.5 a10.25 10.25 0 1 0 20.5 0 a10.25 10.25 0 1 0 -20.5 0zM830.25 266.5 a10.25 10.25 0 1 0 20.5 0 a10.25 10.25 0 1 0 -20.5 0z" fill="rgba(41, 148, 0, 1)"></path><path d="M1332.5 266.5L1209.5 266.5L1168.5 225.5" stroke-width="6.83" stroke="rgba(41, 148, 0, 1)"></path><path d="M1322.25 266.5 a10.25 10.25 0 1 0 20.5 0 a10.25 10.25 0 1 0 -20.5 0zM1158.25 225.5 a10.25 10.25 0 1 0 20.5 0 a10.25 10.25 0 1 0 -20.5 0z" fill="rgba(41, 148, 0, 1)"></path><path d="M225.5 102.5L225.5 184.5L307.5 266.5L389.5 266.5L512.5 143.5" stroke-width="6.83" stroke="rgba(41, 148, 0, 1)"></path><path d="M215.25 102.5 a10.25 10.25 0 1 0 20.5 0 a10.25 10.25 0 1 0 -20.5 0zM502.25 143.5 a10.25 10.25 0 1 0 20.5 0 a10.25 10.25 0 1 0 -20.5 0z" fill="rgba(41, 148, 0, 1)"></path><path d="M758.5 266.5L635.5 389.5" stroke-width="6.83" stroke="rgba(41, 148, 0, 1)"></path><path d="M748.25 266.5 a10.25 10.25 0 1 0 20.5 0 a10.25 10.25 0 1 0 -20.5 0zM625.25 389.5 a10.25 10.25 0 1 0 20.5 0 a10.25 10.25 0 1 0 -20.5 0z" fill="rgba(41, 148, 0, 1)"></path><path d="M922.5 348.5L840.5 430.5L717.5 430.5" stroke-width="6.83" stroke="rgba(41, 148, 0, 1)"></path><path d="M912.25 348.5 a10.25 10.25 0 1 0 20.5 0 a10.25 10.25 0 1 0 -20.5 0zM707.25 430.5 a10.25 10.25 0 1 0 20.5 0 a10.25 10.25 0 1 0 -20.5 0z" fill="rgba(41, 148, 0, 1)"></path><path d="M102.5 471.5L20.5 553.5" stroke-width="6.83" stroke="rgba(41, 148, 0, 1)"></path><path d="M92.25 471.5 a10.25 10.25 0 1 0 20.5 0 a10.25 10.25 0 1 0 -20.5 0zM10.25 553.5 a10.25 10.25 0 1 0 20.5 0 a10.25 10.25 0 1 0 -20.5 0z" fill="rgba(41, 148, 0, 1)"></path><path d="M143.5 389.5L143.5 471.5" stroke-width="6.83" stroke="rgba(41, 148, 0, 1)"></path><path d="M133.25 389.5 a10.25 10.25 0 1 0 20.5 0 a10.25 10.25 0 1 0 -20.5 0zM133.25 471.5 a10.25 10.25 0 1 0 20.5 0 a10.25 10.25 0 1 0 -20.5 0z" fill="rgba(41, 148, 0, 1)"></path><path d="M799.5 143.5L881.5 61.5L922.5 61.5L1004.5 143.5" stroke-width="6.83" stroke="rgba(41, 148, 0, 1)"></path><path d="M789.25 143.5 a10.25 10.25 0 1 0 20.5 0 a10.25 10.25 0 1 0 -20.5 0zM994.25 143.5 a10.25 10.25 0 1 0 20.5 0 a10.25 10.25 0 1 0 -20.5 0z" fill="rgba(41, 148, 0, 1)"></path><path d="M1168.5 430.5L1004.5 430.5L963.5 471.5L963.5 512.5" stroke-width="6.83" stroke="rgba(41, 148, 0, 1)"></path><path d="M1158.25 430.5 a10.25 10.25 0 1 0 20.5 0 a10.25 10.25 0 1 0 -20.5 0zM953.25 512.5 a10.25 10.25 0 1 0 20.5 0 a10.25 10.25 0 1 0 -20.5 0z" fill="rgba(41, 148, 0, 1)"></path><path d="M61.5 184.5L61.5 266.5" stroke-width="6.83" stroke="rgba(41, 148, 0, 1)"></path><path d="M51.25 184.5 a10.25 10.25 0 1 0 20.5 0 a10.25 10.25 0 1 0 -20.5 0zM51.25 266.5 a10.25 10.25 0 1 0 20.5 0 a10.25 10.25 0 1 0 -20.5 0z" fill="rgba(41, 148, 0, 1)"></path><path d="M1045.5 307.5L922.5 430.5L881.5 430.5" stroke-width="6.83" stroke="rgba(41, 148, 0, 1)"></path><path d="M1035.25 307.5 a10.25 10.25 0 1 0 20.5 0 a10.25 10.25 0 1 0 -20.5 0zM871.25 430.5 a10.25 10.25 0 1 0 20.5 0 a10.25 10.25 0 1 0 -20.5 0z" fill="rgba(41, 148, 0, 1)"></path><path d="M102.5 20.5L20.5 102.5L20.5 266.5" stroke-width="6.83" stroke="rgba(41, 148, 0, 1)"></path><path d="M92.25 20.5 a10.25 10.25 0 1 0 20.5 0 a10.25 10.25 0 1 0 -20.5 0zM10.25 266.5 a10.25 10.25 0 1 0 20.5 0 a10.25 10.25 0 1 0 -20.5 0z" fill="rgba(41, 148, 0, 1)"></path><path d="M471.5 102.5L348.5 102.5L266.5 184.5" stroke-width="6.83" stroke="rgba(41, 148, 0, 1)"></path><path d="M461.25 102.5 a10.25 10.25 0 1 0 20.5 0 a10.25 10.25 0 1 0 -20.5 0zM256.25 184.5 a10.25 10.25 0 1 0 20.5 0 a10.25 10.25 0 1 0 -20.5 0z" fill="rgba(41, 148, 0, 1)"></path><path d="M1332.5 61.5L1373.5 20.5L1455.5 20.5" stroke-width="6.83" stroke="rgba(41, 148, 0, 1)"></path><path d="M1322.25 61.5 a10.25 10.25 0 1 0 20.5 0 a10.25 10.25 0 1 0 -20.5 0zM1445.25 20.5 a10.25 10.25 0 1 0 20.5 0 a10.25 10.25 0 1 0 -20.5 0z" fill="rgba(41, 148, 0, 1)"></path><path d="M1414.5 61.5L1455.5 102.5L1455.5 348.5" stroke-width="6.83" stroke="rgba(41, 148, 0, 1)"></path><path d="M1404.25 61.5 a10.25 10.25 0 1 0 20.5 0 a10.25 10.25 0 1 0 -20.5 0zM1445.25 348.5 a10.25 10.25 0 1 0 20.5 0 a10.25 10.25 0 1 0 -20.5 0z" fill="rgba(41, 148, 0, 1)"></path><path d="M1209.5 553.5L1004.5 553.5" stroke-width="6.83" stroke="rgba(41, 148, 0, 1)"></path><path d="M1199.25 553.5 a10.25 10.25 0 1 0 20.5 0 a10.25 10.25 0 1 0 -20.5 0zM994.25 553.5 a10.25 10.25 0 1 0 20.5 0 a10.25 10.25 0 1 0 -20.5 0z" fill="rgba(41, 148, 0, 1)"></path><path d="M348.5 20.5L184.5 20.5" stroke-width="6.83" stroke="rgba(41, 148, 0, 1)"></path><path d="M338.25 20.5 a10.25 10.25 0 1 0 20.5 0 a10.25 10.25 0 1 0 -20.5 0zM174.25 20.5 a10.25 10.25 0 1 0 20.5 0 a10.25 10.25 0 1 0 -20.5 0z" fill="rgba(41, 148, 0, 1)"></path><path d="M348.5 430.5L184.5 430.5" stroke-width="6.83" stroke="rgba(41, 148, 0, 1)"></path><path d="M338.25 430.5 a10.25 10.25 0 1 0 20.5 0 a10.25 10.25 0 1 0 -20.5 0zM174.25 430.5 a10.25 10.25 0 1 0 20.5 0 a10.25 10.25 0 1 0 -20.5 0z" fill="rgba(41, 148, 0, 1)"></path><path d="M20.5 389.5L20.5 512.5" stroke-width="6.83" stroke="rgba(41, 148, 0, 1)"></path><path d="M10.25 389.5 a10.25 10.25 0 1 0 20.5 0 a10.25 10.25 0 1 0 -20.5 0zM10.25 512.5 a10.25 10.25 0 1 0 20.5 0 a10.25 10.25 0 1 0 -20.5 0z" fill="rgba(41, 148, 0, 1)"></path><path d="M266.5 512.5L348.5 512.5" stroke-width="6.83" stroke="rgba(41, 148, 0, 1)"></path><path d="M256.25 512.5 a10.25 10.25 0 1 0 20.5 0 a10.25 10.25 0 1 0 -20.5 0zM338.25 512.5 a10.25 10.25 0 1 0 20.5 0 a10.25 10.25 0 1 0 -20.5 0z" fill="rgba(41, 148, 0, 1)"></path><path d="M61.5 143.5L102.5 102.5L102.5 61.5" stroke-width="6.83" stroke="rgba(41, 148, 0, 1)"></path><path d="M51.25 143.5 a10.25 10.25 0 1 0 20.5 0 a10.25 10.25 0 1 0 -20.5 0zM92.25 61.5 a10.25 10.25 0 1 0 20.5 0 a10.25 10.25 0 1 0 -20.5 0z" fill="rgba(41, 148, 0, 1)"></path><path d="M1045.5 61.5L1086.5 20.5L1168.5 20.5L1291.5 143.5" stroke-width="6.83" stroke="rgba(41, 148, 0, 1)"></path><path d="M1035.25 61.5 a10.25 10.25 0 1 0 20.5 0 a10.25 10.25 0 1 0 -20.5 0zM1281.25 143.5 a10.25 10.25 0 1 0 20.5 0 a10.25 10.25 0 1 0 -20.5 0z" fill="rgba(41, 148, 0, 1)"></path><path d="M389.5 389.5L471.5 389.5L512.5 430.5" stroke-width="6.83" stroke="rgba(41, 148, 0, 1)"></path><path d="M379.25 389.5 a10.25 10.25 0 1 0 20.5 0 a10.25 10.25 0 1 0 -20.5 0zM502.25 430.5 a10.25 10.25 0 1 0 20.5 0 a10.25 10.25 0 1 0 -20.5 0z" fill="rgba(41, 148, 0, 1)"></path><path d="M1250.5 512.5L1291.5 512.5L1332.5 553.5" stroke-width="6.83" stroke="rgba(41, 148, 0, 1)"></path><path d="M1240.25 512.5 a10.25 10.25 0 1 0 20.5 0 a10.25 10.25 0 1 0 -20.5 0zM1322.25 553.5 a10.25 10.25 0 1 0 20.5 0 a10.25 10.25 0 1 0 -20.5 0z" fill="rgba(41, 148, 0, 1)"></path><path d="M635.5 61.5L594.5 102.5L594.5 143.5" stroke-width="6.83" stroke="rgba(41, 148, 0, 1)"></path><path d="M625.25 61.5 a10.25 10.25 0 1 0 20.5 0 a10.25 10.25 0 1 0 -20.5 0zM584.25 143.5 a10.25 10.25 0 1 0 20.5 0 a10.25 10.25 0 1 0 -20.5 0z" fill="rgba(41, 148, 0, 1)"></path><path d="M922.5 143.5L840.5 143.5" stroke-width="6.83" stroke="rgba(41, 148, 0, 1)"></path><path d="M912.25 143.5 a10.25 10.25 0 1 0 20.5 0 a10.25 10.25 0 1 0 -20.5 0zM830.25 143.5 a10.25 10.25 0 1 0 20.5 0 a10.25 10.25 0 1 0 -20.5 0z" fill="rgba(41, 148, 0, 1)"></path><path d="M1127.5 102.5L1209.5 102.5L1250.5 143.5" stroke-width="6.83" stroke="rgba(41, 148, 0, 1)"></path><path d="M1117.25 102.5 a10.25 10.25 0 1 0 20.5 0 a10.25 10.25 0 1 0 -20.5 0zM1240.25 143.5 a10.25 10.25 0 1 0 20.5 0 a10.25 10.25 0 1 0 -20.5 0z" fill="rgba(41, 148, 0, 1)"></path><path d="M1414.5 266.5L1414.5 102.5" stroke-width="6.83" stroke="rgba(41, 148, 0, 1)"></path><path d="M1404.25 266.5 a10.25 10.25 0 1 0 20.5 0 a10.25 10.25 0 1 0 -20.5 0zM1404.25 102.5 a10.25 10.25 0 1 0 20.5 0 a10.25 10.25 0 1 0 -20.5 0z" fill="rgba(41, 148, 0, 1)"></path><path d="M184.5 102.5L184.5 266.5" stroke-width="6.83" stroke="rgba(41, 148, 0, 1)"></path><path d="M174.25 102.5 a10.25 10.25 0 1 0 20.5 0 a10.25 10.25 0 1 0 -20.5 0zM174.25 266.5 a10.25 10.25 0 1 0 20.5 0 a10.25 10.25 0 1 0 -20.5 0z" fill="rgba(41, 148, 0, 1)"></path><path d="M1250.5 20.5L1332.5 20.5" stroke-width="6.83" stroke="rgba(41, 148, 0, 1)"></path><path d="M1240.25 20.5 a10.25 10.25 0 1 0 20.5 0 a10.25 10.25 0 1 0 -20.5 0zM1322.25 20.5 a10.25 10.25 0 1 0 20.5 0 a10.25 10.25 0 1 0 -20.5 0z" fill="rgba(41, 148, 0, 1)"></path><path d="M1168.5 61.5L1086.5 61.5L1045.5 102.5" stroke-width="6.83" stroke="rgba(41, 148, 0, 1)"></path><path d="M1158.25 61.5 a10.25 10.25 0 1 0 20.5 0 a10.25 10.25 0 1 0 -20.5 0zM1035.25 102.5 a10.25 10.25 0 1 0 20.5 0 a10.25 10.25 0 1 0 -20.5 0z" fill="rgba(41, 148, 0, 1)"></path><path d="M1086.5 143.5L1209.5 143.5" stroke-width="6.83" stroke="rgba(41, 148, 0, 1)"></path><path d="M1076.25 143.5 a10.25 10.25 0 1 0 20.5 0 a10.25 10.25 0 1 0 -20.5 0zM1199.25 143.5 a10.25 10.25 0 1 0 20.5 0 a10.25 10.25 0 1 0 -20.5 0z" fill="rgba(41, 148, 0, 1)"></path><path d="M758.5 143.5L676.5 143.5" stroke-width="6.83" stroke="rgba(41, 148, 0, 1)"></path><path d="M748.25 143.5 a10.25 10.25 0 1 0 20.5 0 a10.25 10.25 0 1 0 -20.5 0zM666.25 143.5 a10.25 10.25 0 1 0 20.5 0 a10.25 10.25 0 1 0 -20.5 0z" fill="rgba(41, 148, 0, 1)"></path><path d="M307.5 389.5L184.5 389.5" stroke-width="6.83" stroke="rgba(41, 148, 0, 1)"></path><path d="M297.25 389.5 a10.25 10.25 0 1 0 20.5 0 a10.25 10.25 0 1 0 -20.5 0zM174.25 389.5 a10.25 10.25 0 1 0 20.5 0 a10.25 10.25 0 1 0 -20.5 0z" fill="rgba(41, 148, 0, 1)"></path><path d="M102.5 225.5L102.5 143.5" stroke-width="6.83" stroke="rgba(41, 148, 0, 1)"></path><path d="M92.25 225.5 a10.25 10.25 0 1 0 20.5 0 a10.25 10.25 0 1 0 -20.5 0zM92.25 143.5 a10.25 10.25 0 1 0 20.5 0 a10.25 10.25 0 1 0 -20.5 0z" fill="rgba(41, 148, 0, 1)"></path></g></g><defs><mask id="SvgjsMask1000"><rect width="1440" height="560" fill="#ffffff"></rect></mask><mask id="SvgjsMask1001"><rect width="1440" height="560" fill="white"></rect><path d="M876.37 266.5 a5.13 5.13 0 1 0 10.26 0 a5.13 5.13 0 1 0 -10.26 0zM1450.37 553.5 a5.13 5.13 0 1 0 10.26 0 a5.13 5.13 0 1 0 -10.26 0z" fill="black"></path><path d="M794.37 471.5 a5.13 5.13 0 1 0 10.26 0 a5.13 5.13 0 1 0 -10.26 0zM1409.37 553.5 a5.13 5.13 0 1 0 10.26 0 a5.13 5.13 0 1 0 -10.26 0z" fill="black"></path><path d="M138.37 266.5 a5.13 5.13 0 1 0 10.26 0 a5.13 5.13 0 1 0 -10.26 0zM138.37 20.5 a5.13 5.13 0 1 0 10.26 0 a5.13 5.13 0 1 0 -10.26 0z" fill="black"></path><path d="M261.37 143.5 a5.13 5.13 0 1 0 10.26 0 a5.13 5.13 0 1 0 -10.26 0zM1040.37 20.5 a5.13 5.13 0 1 0 10.26 0 a5.13 5.13 0 1 0 -10.26 0z" fill="black"></path><path d="M15.37 348.5 a5.13 5.13 0 1 0 10.26 0 a5.13 5.13 0 1 0 -10.26 0zM794.37 61.5 a5.13 5.13 0 1 0 10.26 0 a5.13 5.13 0 1 0 -10.26 0z" fill="black"></path><path d="M589.37 471.5 a5.13 5.13 0 1 0 10.26 0 a5.13 5.13 0 1 0 -10.26 0zM466.37 348.5 a5.13 5.13 0 1 0 10.26 0 a5.13 5.13 0 1 0 -10.26 0z" fill="black"></path><path d="M548.37 102.5 a5.13 5.13 0 1 0 10.26 0 a5.13 5.13 0 1 0 -10.26 0zM15.37 307.5 a5.13 5.13 0 1 0 10.26 0 a5.13 5.13 0 1 0 -10.26 0z" fill="black"></path><path d="M1040.37 184.5 a5.13 5.13 0 1 0 10.26 0 a5.13 5.13 0 1 0 -10.26 0zM712.37 471.5 a5.13 5.13 0 1 0 10.26 0 a5.13 5.13 0 1 0 -10.26 0z" fill="black"></path><path d="M1245.37 553.5 a5.13 5.13 0 1 0 10.26 0 a5.13 5.13 0 1 0 -10.26 0zM466.37 553.5 a5.13 5.13 0 1 0 10.26 0 a5.13 5.13 0 1 0 -10.26 0z" fill="black"></path><path d="M138.37 512.5 a5.13 5.13 0 1 0 10.26 0 a5.13 5.13 0 1 0 -10.26 0zM917.37 512.5 a5.13 5.13 0 1 0 10.26 0 a5.13 5.13 0 1 0 -10.26 0z" fill="black"></path><path d="M1368.37 102.5 a5.13 5.13 0 1 0 10.26 0 a5.13 5.13 0 1 0 -10.26 0zM1450.37 512.5 a5.13 5.13 0 1 0 10.26 0 a5.13 5.13 0 1 0 -10.26 0z" fill="black"></path><path d="M712.37 389.5 a5.13 5.13 0 1 0 10.26 0 a5.13 5.13 0 1 0 -10.26 0zM1122.37 225.5 a5.13 5.13 0 1 0 10.26 0 a5.13 5.13 0 1 0 -10.26 0z" fill="black"></path><path d="M958.37 61.5 a5.13 5.13 0 1 0 10.26 0 a5.13 5.13 0 1 0 -10.26 0zM1327.37 184.5 a5.13 5.13 0 1 0 10.26 0 a5.13 5.13 0 1 0 -10.26 0z" fill="black"></path><path d="M1245.37 61.5 a5.13 5.13 0 1 0 10.26 0 a5.13 5.13 0 1 0 -10.26 0zM1327.37 143.5 a5.13 5.13 0 1 0 10.26 0 a5.13 5.13 0 1 0 -10.26 0z" fill="black"></path><path d="M261.37 553.5 a5.13 5.13 0 1 0 10.26 0 a5.13 5.13 0 1 0 -10.26 0zM548.37 512.5 a5.13 5.13 0 1 0 10.26 0 a5.13 5.13 0 1 0 -10.26 0z" fill="black"></path><path d="M835.37 389.5 a5.13 5.13 0 1 0 10.26 0 a5.13 5.13 0 1 0 -10.26 0zM835.37 266.5 a5.13 5.13 0 1 0 10.26 0 a5.13 5.13 0 1 0 -10.26 0z" fill="black"></path><path d="M1327.37 266.5 a5.13 5.13 0 1 0 10.26 0 a5.13 5.13 0 1 0 -10.26 0zM1163.37 225.5 a5.13 5.13 0 1 0 10.26 0 a5.13 5.13 0 1 0 -10.26 0z" fill="black"></path><path d="M220.37 102.5 a5.13 5.13 0 1 0 10.26 0 a5.13 5.13 0 1 0 -10.26 0zM507.37 143.5 a5.13 5.13 0 1 0 10.26 0 a5.13 5.13 0 1 0 -10.26 0z" fill="black"></path><path d="M753.37 266.5 a5.13 5.13 0 1 0 10.26 0 a5.13 5.13 0 1 0 -10.26 0zM630.37 389.5 a5.13 5.13 0 1 0 10.26 0 a5.13 5.13 0 1 0 -10.26 0z" fill="black"></path><path d="M917.37 348.5 a5.13 5.13 0 1 0 10.26 0 a5.13 5.13 0 1 0 -10.26 0zM712.37 430.5 a5.13 5.13 0 1 0 10.26 0 a5.13 5.13 0 1 0 -10.26 0z" fill="black"></path><path d="M97.37 471.5 a5.13 5.13 0 1 0 10.26 0 a5.13 5.13 0 1 0 -10.26 0zM15.37 553.5 a5.13 5.13 0 1 0 10.26 0 a5.13 5.13 0 1 0 -10.26 0z" fill="black"></path><path d="M138.37 389.5 a5.13 5.13 0 1 0 10.26 0 a5.13 5.13 0 1 0 -10.26 0zM138.37 471.5 a5.13 5.13 0 1 0 10.26 0 a5.13 5.13 0 1 0 -10.26 0z" fill="black"></path><path d="M794.37 143.5 a5.13 5.13 0 1 0 10.26 0 a5.13 5.13 0 1 0 -10.26 0zM999.37 143.5 a5.13 5.13 0 1 0 10.26 0 a5.13 5.13 0 1 0 -10.26 0z" fill="black"></path><path d="M1163.37 430.5 a5.13 5.13 0 1 0 10.26 0 a5.13 5.13 0 1 0 -10.26 0zM958.37 512.5 a5.13 5.13 0 1 0 10.26 0 a5.13 5.13 0 1 0 -10.26 0z" fill="black"></path><path d="M56.37 184.5 a5.13 5.13 0 1 0 10.26 0 a5.13 5.13 0 1 0 -10.26 0zM56.37 266.5 a5.13 5.13 0 1 0 10.26 0 a5.13 5.13 0 1 0 -10.26 0z" fill="black"></path><path d="M1040.37 307.5 a5.13 5.13 0 1 0 10.26 0 a5.13 5.13 0 1 0 -10.26 0zM876.37 430.5 a5.13 5.13 0 1 0 10.26 0 a5.13 5.13 0 1 0 -10.26 0z" fill="black"></path><path d="M97.37 20.5 a5.13 5.13 0 1 0 10.26 0 a5.13 5.13 0 1 0 -10.26 0zM15.37 266.5 a5.13 5.13 0 1 0 10.26 0 a5.13 5.13 0 1 0 -10.26 0z" fill="black"></path><path d="M466.37 102.5 a5.13 5.13 0 1 0 10.26 0 a5.13 5.13 0 1 0 -10.26 0zM261.37 184.5 a5.13 5.13 0 1 0 10.26 0 a5.13 5.13 0 1 0 -10.26 0z" fill="black"></path><path d="M1327.37 61.5 a5.13 5.13 0 1 0 10.26 0 a5.13 5.13 0 1 0 -10.26 0zM1450.37 20.5 a5.13 5.13 0 1 0 10.26 0 a5.13 5.13 0 1 0 -10.26 0z" fill="black"></path><path d="M1409.37 61.5 a5.13 5.13 0 1 0 10.26 0 a5.13 5.13 0 1 0 -10.26 0zM1450.37 348.5 a5.13 5.13 0 1 0 10.26 0 a5.13 5.13 0 1 0 -10.26 0z" fill="black"></path><path d="M1204.37 553.5 a5.13 5.13 0 1 0 10.26 0 a5.13 5.13 0 1 0 -10.26 0zM999.37 553.5 a5.13 5.13 0 1 0 10.26 0 a5.13 5.13 0 1 0 -10.26 0z" fill="black"></path><path d="M343.37 20.5 a5.13 5.13 0 1 0 10.26 0 a5.13 5.13 0 1 0 -10.26 0zM179.37 20.5 a5.13 5.13 0 1 0 10.26 0 a5.13 5.13 0 1 0 -10.26 0z" fill="black"></path><path d="M343.37 430.5 a5.13 5.13 0 1 0 10.26 0 a5.13 5.13 0 1 0 -10.26 0zM179.37 430.5 a5.13 5.13 0 1 0 10.26 0 a5.13 5.13 0 1 0 -10.26 0z" fill="black"></path><path d="M15.37 389.5 a5.13 5.13 0 1 0 10.26 0 a5.13 5.13 0 1 0 -10.26 0zM15.37 512.5 a5.13 5.13 0 1 0 10.26 0 a5.13 5.13 0 1 0 -10.26 0z" fill="black"></path><path d="M261.37 512.5 a5.13 5.13 0 1 0 10.26 0 a5.13 5.13 0 1 0 -10.26 0zM343.37 512.5 a5.13 5.13 0 1 0 10.26 0 a5.13 5.13 0 1 0 -10.26 0z" fill="black"></path><path d="M56.37 143.5 a5.13 5.13 0 1 0 10.26 0 a5.13 5.13 0 1 0 -10.26 0zM97.37 61.5 a5.13 5.13 0 1 0 10.26 0 a5.13 5.13 0 1 0 -10.26 0z" fill="black"></path><path d="M1040.37 61.5 a5.13 5.13 0 1 0 10.26 0 a5.13 5.13 0 1 0 -10.26 0zM1286.37 143.5 a5.13 5.13 0 1 0 10.26 0 a5.13 5.13 0 1 0 -10.26 0z" fill="black"></path><path d="M384.37 389.5 a5.13 5.13 0 1 0 10.26 0 a5.13 5.13 0 1 0 -10.26 0zM507.37 430.5 a5.13 5.13 0 1 0 10.26 0 a5.13 5.13 0 1 0 -10.26 0z" fill="black"></path><path d="M1245.37 512.5 a5.13 5.13 0 1 0 10.26 0 a5.13 5.13 0 1 0 -10.26 0zM1327.37 553.5 a5.13 5.13 0 1 0 10.26 0 a5.13 5.13 0 1 0 -10.26 0z" fill="black"></path><path d="M630.37 61.5 a5.13 5.13 0 1 0 10.26 0 a5.13 5.13 0 1 0 -10.26 0zM589.37 143.5 a5.13 5.13 0 1 0 10.26 0 a5.13 5.13 0 1 0 -10.26 0z" fill="black"></path><path d="M917.37 143.5 a5.13 5.13 0 1 0 10.26 0 a5.13 5.13 0 1 0 -10.26 0zM835.37 143.5 a5.13 5.13 0 1 0 10.26 0 a5.13 5.13 0 1 0 -10.26 0z" fill="black"></path><path d="M1122.37 102.5 a5.13 5.13 0 1 0 10.26 0 a5.13 5.13 0 1 0 -10.26 0zM1245.37 143.5 a5.13 5.13 0 1 0 10.26 0 a5.13 5.13 0 1 0 -10.26 0z" fill="black"></path><path d="M1409.37 266.5 a5.13 5.13 0 1 0 10.26 0 a5.13 5.13 0 1 0 -10.26 0zM1409.37 102.5 a5.13 5.13 0 1 0 10.26 0 a5.13 5.13 0 1 0 -10.26 0z" fill="black"></path><path d="M179.37 102.5 a5.13 5.13 0 1 0 10.26 0 a5.13 5.13 0 1 0 -10.26 0zM179.37 266.5 a5.13 5.13 0 1 0 10.26 0 a5.13 5.13 0 1 0 -10.26 0z" fill="black"></path><path d="M1245.37 20.5 a5.13 5.13 0 1 0 10.26 0 a5.13 5.13 0 1 0 -10.26 0zM1327.37 20.5 a5.13 5.13 0 1 0 10.26 0 a5.13 5.13 0 1 0 -10.26 0z" fill="black"></path><path d="M1163.37 61.5 a5.13 5.13 0 1 0 10.26 0 a5.13 5.13 0 1 0 -10.26 0zM1040.37 102.5 a5.13 5.13 0 1 0 10.26 0 a5.13 5.13 0 1 0 -10.26 0z" fill="black"></path><path d="M1081.37 143.5 a5.13 5.13 0 1 0 10.26 0 a5.13 5.13 0 1 0 -10.26 0zM1204.37 143.5 a5.13 5.13 0 1 0 10.26 0 a5.13 5.13 0 1 0 -10.26 0z" fill="black"></path><path d="M753.37 143.5 a5.13 5.13 0 1 0 10.26 0 a5.13 5.13 0 1 0 -10.26 0zM671.37 143.5 a5.13 5.13 0 1 0 10.26 0 a5.13 5.13 0 1 0 -10.26 0z" fill="black"></path><path d="M302.37 389.5 a5.13 5.13 0 1 0 10.26 0 a5.13 5.13 0 1 0 -10.26 0zM179.37 389.5 a5.13 5.13 0 1 0 10.26 0 a5.13 5.13 0 1 0 -10.26 0z" fill="black"></path><path d="M97.37 225.5 a5.13 5.13 0 1 0 10.26 0 a5.13 5.13 0 1 0 -10.26 0zM97.37 143.5 a5.13 5.13 0 1 0 10.26 0 a5.13 5.13 0 1 0 -10.26 0z" fill="black"></path></mask></defs></svg>