<svg xmlns="http://www.w3.org/2000/svg" version="1.1" xmlns:xlink="http://www.w3.org/1999/xlink" xmlns:svgjs="http://svgjs.dev/svgjs" width="1000" height="2000" preserveAspectRatio="none" viewBox="0 0 1000 2000"><g mask="url(&quot;#SvgjsMask1115&quot;)" fill="none"><path d="M87.03 987.58L182.3 1042.58L182.3 1152.58L87.03 1207.58L-8.24 1152.58L-8.24 1042.58zM87.03 1647.58L182.3 1702.58L182.3 1812.58L87.03 1867.58L-8.24 1812.58L-8.24 1702.58zM372.83 822.58L468.09 877.58L468.09 987.58L372.83 1042.58L277.56 987.58L277.56 877.58zM372.83 1152.58L468.09 1207.58L468.09 1317.58L372.83 1372.58L277.56 1317.58L277.56 1207.58zM563.36 1152.58L658.62 1207.58L658.62 1317.58L563.36 1372.58L468.09 1317.58L468.09 1207.58zM563.36 1482.58L658.62 1537.58L658.62 1647.58L563.36 1702.58L468.09 1647.58L468.09 1537.58zM658.62 657.58L753.89 712.58L753.89 822.58L658.62 877.58L563.36 822.58L563.36 712.58zM658.62 1647.58L753.89 1702.58L753.89 1812.58L658.62 1867.58L563.36 1812.58L563.36 1702.58zM944.42 1152.58L1039.68 1207.58L1039.68 1317.58L944.42 1372.58L849.15 1317.58L849.15 1207.58zM1134.95 492.58L1230.22 547.58L1230.22 657.58L1134.95 712.58L1039.68 657.58L1039.68 547.58z" stroke="rgba(30, 112, 0, 1)" stroke-width="2"></path><path d="M76.03 987.58 a11 11 0 1 0 22 0 a11 11 0 1 0 -22 0zM171.3 1042.58 a11 11 0 1 0 22 0 a11 11 0 1 0 -22 0zM171.3 1152.58 a11 11 0 1 0 22 0 a11 11 0 1 0 -22 0zM76.03 1207.58 a11 11 0 1 0 22 0 a11 11 0 1 0 -22 0zM-19.24 1152.58 a11 11 0 1 0 22 0 a11 11 0 1 0 -22 0zM-19.24 1042.58 a11 11 0 1 0 22 0 a11 11 0 1 0 -22 0zM76.03 1647.58 a11 11 0 1 0 22 0 a11 11 0 1 0 -22 0zM171.3 1702.58 a11 11 0 1 0 22 0 a11 11 0 1 0 -22 0zM171.3 1812.58 a11 11 0 1 0 22 0 a11 11 0 1 0 -22 0zM76.03 1867.58 a11 11 0 1 0 22 0 a11 11 0 1 0 -22 0zM-19.24 1812.58 a11 11 0 1 0 22 0 a11 11 0 1 0 -22 0zM-19.24 1702.58 a11 11 0 1 0 22 0 a11 11 0 1 0 -22 0zM361.83 822.58 a11 11 0 1 0 22 0 a11 11 0 1 0 -22 0zM457.09 877.58 a11 11 0 1 0 22 0 a11 11 0 1 0 -22 0zM457.09 987.58 a11 11 0 1 0 22 0 a11 11 0 1 0 -22 0zM361.83 1042.58 a11 11 0 1 0 22 0 a11 11 0 1 0 -22 0zM266.56 987.58 a11 11 0 1 0 22 0 a11 11 0 1 0 -22 0zM266.56 877.58 a11 11 0 1 0 22 0 a11 11 0 1 0 -22 0zM361.83 1152.58 a11 11 0 1 0 22 0 a11 11 0 1 0 -22 0zM457.09 1207.58 a11 11 0 1 0 22 0 a11 11 0 1 0 -22 0zM457.09 1317.58 a11 11 0 1 0 22 0 a11 11 0 1 0 -22 0zM361.83 1372.58 a11 11 0 1 0 22 0 a11 11 0 1 0 -22 0zM266.56 1317.58 a11 11 0 1 0 22 0 a11 11 0 1 0 -22 0zM266.56 1207.58 a11 11 0 1 0 22 0 a11 11 0 1 0 -22 0zM552.36 1152.58 a11 11 0 1 0 22 0 a11 11 0 1 0 -22 0zM647.62 1207.58 a11 11 0 1 0 22 0 a11 11 0 1 0 -22 0zM647.62 1317.58 a11 11 0 1 0 22 0 a11 11 0 1 0 -22 0zM552.36 1372.58 a11 11 0 1 0 22 0 a11 11 0 1 0 -22 0zM552.36 1482.58 a11 11 0 1 0 22 0 a11 11 0 1 0 -22 0zM647.62 1537.58 a11 11 0 1 0 22 0 a11 11 0 1 0 -22 0zM647.62 1647.58 a11 11 0 1 0 22 0 a11 11 0 1 0 -22 0zM552.36 1702.58 a11 11 0 1 0 22 0 a11 11 0 1 0 -22 0zM457.09 1647.58 a11 11 0 1 0 22 0 a11 11 0 1 0 -22 0zM457.09 1537.58 a11 11 0 1 0 22 0 a11 11 0 1 0 -22 0zM647.62 657.58 a11 11 0 1 0 22 0 a11 11 0 1 0 -22 0zM742.89 712.58 a11 11 0 1 0 22 0 a11 11 0 1 0 -22 0zM742.89 822.58 a11 11 0 1 0 22 0 a11 11 0 1 0 -22 0zM647.62 877.58 a11 11 0 1 0 22 0 a11 11 0 1 0 -22 0zM552.36 822.58 a11 11 0 1 0 22 0 a11 11 0 1 0 -22 0zM552.36 712.58 a11 11 0 1 0 22 0 a11 11 0 1 0 -22 0zM742.89 1702.58 a11 11 0 1 0 22 0 a11 11 0 1 0 -22 0zM742.89 1812.58 a11 11 0 1 0 22 0 a11 11 0 1 0 -22 0zM647.62 1867.58 a11 11 0 1 0 22 0 a11 11 0 1 0 -22 0zM552.36 1812.58 a11 11 0 1 0 22 0 a11 11 0 1 0 -22 0zM933.42 1152.58 a11 11 0 1 0 22 0 a11 11 0 1 0 -22 0zM1028.68 1207.58 a11 11 0 1 0 22 0 a11 11 0 1 0 -22 0zM1028.68 1317.58 a11 11 0 1 0 22 0 a11 11 0 1 0 -22 0zM933.42 1372.58 a11 11 0 1 0 22 0 a11 11 0 1 0 -22 0zM838.15 1317.58 a11 11 0 1 0 22 0 a11 11 0 1 0 -22 0zM838.15 1207.58 a11 11 0 1 0 22 0 a11 11 0 1 0 -22 0zM1123.95 492.58 a11 11 0 1 0 22 0 a11 11 0 1 0 -22 0zM1219.22 547.58 a11 11 0 1 0 22 0 a11 11 0 1 0 -22 0zM1219.22 657.58 a11 11 0 1 0 22 0 a11 11 0 1 0 -22 0zM1123.95 712.58 a11 11 0 1 0 22 0 a11 11 0 1 0 -22 0zM1028.68 657.58 a11 11 0 1 0 22 0 a11 11 0 1 0 -22 0zM1028.68 547.58 a11 11 0 1 0 22 0 a11 11 0 1 0 -22 0z" fill="rgba(30, 112, 0, 1)"></path><path d="M63.1 -28.79L121.99 5.21L121.99 73.21L63.1 107.21L4.21 73.21L4.21 5.21zM121.99 277.21L180.88 311.21L180.88 379.21L121.99 413.21L63.1 379.21L63.1 311.21zM63.1 583.21L121.99 617.21L121.99 685.21L63.1 719.21L4.21 685.21L4.21 617.21zM63.1 991.21L121.99 1025.21L121.99 1093.21L63.1 1127.21L4.21 1093.21L4.21 1025.21zM63.1 1603.21L121.99 1637.21L121.99 1705.21L63.1 1739.21L4.21 1705.21L4.21 1637.21zM63.1 1807.21L121.99 1841.21L121.99 1909.21L63.1 1943.21L4.21 1909.21L4.21 1841.21zM121.99 1909.21L180.88 1943.21L180.88 2011.21L121.99 2045.21L63.1 2011.21L63.1 1943.21zM180.88 -28.79L239.77 5.21L239.77 73.21L180.88 107.21L121.99 73.21L121.99 5.21zM180.88 787.21L239.77 821.21L239.77 889.21L180.88 923.21L121.99 889.21L121.99 821.21zM180.88 1195.21L239.77 1229.21L239.77 1297.21L180.88 1331.21L121.99 1297.21L121.99 1229.21zM298.67 379.21L357.56 413.21L357.56 481.21L298.67 515.21L239.77 481.21L239.77 413.21zM475.34 685.21L534.23 719.21L534.23 787.21L475.34 821.21L416.45 787.21L416.45 719.21zM416.45 1807.21L475.34 1841.21L475.34 1909.21L416.45 1943.21L357.56 1909.21L357.56 1841.21zM534.23 175.21L593.12 209.21L593.12 277.21L534.23 311.21L475.34 277.21L475.34 209.21zM593.12 481.21L652.01 515.21L652.01 583.21L593.12 617.21L534.23 583.21L534.23 515.21zM534.23 583.21L593.12 617.21L593.12 685.21L534.23 719.21L475.34 685.21L475.34 617.21zM534.23 787.21L593.12 821.21L593.12 889.21L534.23 923.21L475.34 889.21L475.34 821.21zM593.12 1705.21L652.01 1739.21L652.01 1807.21L593.12 1841.21L534.23 1807.21L534.23 1739.21zM652.01 175.21L710.91 209.21L710.91 277.21L652.01 311.21L593.12 277.21L593.12 209.21zM710.91 889.21L769.8 923.21L769.8 991.21L710.91 1025.21L652.01 991.21L652.01 923.21zM828.69 1909.21L887.58 1943.21L887.58 2011.21L828.69 2045.21L769.8 2011.21L769.8 1943.21zM769.8 2011.21L828.69 2045.21L828.69 2113.21L769.8 2147.21L710.91 2113.21L710.91 2045.21zM946.47 685.21L1005.36 719.21L1005.36 787.21L946.47 821.21L887.58 787.21L887.58 719.21zM887.58 787.21L946.47 821.21L946.47 889.21L887.58 923.21L828.69 889.21L828.69 821.21zM887.58 1603.21L946.47 1637.21L946.47 1705.21L887.58 1739.21L828.69 1705.21L828.69 1637.21zM946.47 1909.21L1005.36 1943.21L1005.36 2011.21L946.47 2045.21L887.58 2011.21L887.58 1943.21zM1064.25 73.21L1123.15 107.21L1123.15 175.21L1064.25 209.21L1005.36 175.21L1005.36 107.21zM1005.36 583.21L1064.25 617.21L1064.25 685.21L1005.36 719.21L946.47 685.21L946.47 617.21zM1064.25 1297.21L1123.15 1331.21L1123.15 1399.21L1064.25 1433.21L1005.36 1399.21L1005.36 1331.21zM1005.36 1603.21L1064.25 1637.21L1064.25 1705.21L1005.36 1739.21L946.47 1705.21L946.47 1637.21zM1064.25 1705.21L1123.15 1739.21L1123.15 1807.21L1064.25 1841.21L1005.36 1807.21L1005.36 1739.21z" stroke="rgba(28, 113, 0, 0.93)" stroke-width="2"></path></g><defs><mask id="SvgjsMask1115"><rect width="1000" height="2000" fill="#ffffff"></rect></mask></defs></svg>