<svg xmlns="http://www.w3.org/2000/svg" version="1.1" xmlns:xlink="http://www.w3.org/1999/xlink" xmlns:svgjs="http://svgjs.dev/svgjs" width="1000" height="2000" preserveAspectRatio="none" viewBox="0 0 1000 2000"><g mask="url(&quot;#SvgjsMask1155&quot;)" fill="none"><path d="M299.11 598.25L394.38 653.25L394.38 763.25L299.11 818.25L203.85 763.25L203.85 653.25zM584.91 763.25L680.17 818.25L680.17 928.25L584.91 983.25L489.64 928.25L489.64 818.25zM489.64 1918.25L584.91 1973.25L584.91 2083.25L489.64 2138.25L394.38 2083.25L394.38 1973.25zM680.17 598.25L775.44 653.25L775.44 763.25L680.17 818.25L584.91 763.25L584.91 653.25zM680.17 1258.25L775.44 1313.25L775.44 1423.25L680.17 1478.25L584.91 1423.25L584.91 1313.25zM775.44 1423.25L870.7 1478.25L870.7 1588.25L775.44 1643.25L680.17 1588.25L680.17 1478.25zM775.44 1753.25L870.7 1808.25L870.7 1918.25L775.44 1973.25L680.17 1918.25L680.17 1808.25zM965.97 433.25L1061.23 488.25L1061.23 598.25L965.97 653.25L870.7 598.25L870.7 488.25zM870.7 598.25L965.97 653.25L965.97 763.25L870.7 818.25L775.44 763.25L775.44 653.25zM1156.5 103.25L1251.77 158.25L1251.77 268.25L1156.5 323.25L1061.23 268.25L1061.23 158.25z" stroke="rgba(30, 112, 0, 1)" stroke-width="2"></path><path d="M288.11 598.25 a11 11 0 1 0 22 0 a11 11 0 1 0 -22 0zM383.38 653.25 a11 11 0 1 0 22 0 a11 11 0 1 0 -22 0zM383.38 763.25 a11 11 0 1 0 22 0 a11 11 0 1 0 -22 0zM288.11 818.25 a11 11 0 1 0 22 0 a11 11 0 1 0 -22 0zM192.85 763.25 a11 11 0 1 0 22 0 a11 11 0 1 0 -22 0zM192.85 653.25 a11 11 0 1 0 22 0 a11 11 0 1 0 -22 0zM573.91 763.25 a11 11 0 1 0 22 0 a11 11 0 1 0 -22 0zM669.17 818.25 a11 11 0 1 0 22 0 a11 11 0 1 0 -22 0zM669.17 928.25 a11 11 0 1 0 22 0 a11 11 0 1 0 -22 0zM573.91 983.25 a11 11 0 1 0 22 0 a11 11 0 1 0 -22 0zM478.64 928.25 a11 11 0 1 0 22 0 a11 11 0 1 0 -22 0zM478.64 818.25 a11 11 0 1 0 22 0 a11 11 0 1 0 -22 0zM478.64 1918.25 a11 11 0 1 0 22 0 a11 11 0 1 0 -22 0zM573.91 1973.25 a11 11 0 1 0 22 0 a11 11 0 1 0 -22 0zM573.91 2083.25 a11 11 0 1 0 22 0 a11 11 0 1 0 -22 0zM478.64 2138.25 a11 11 0 1 0 22 0 a11 11 0 1 0 -22 0zM383.38 2083.25 a11 11 0 1 0 22 0 a11 11 0 1 0 -22 0zM383.38 1973.25 a11 11 0 1 0 22 0 a11 11 0 1 0 -22 0zM669.17 598.25 a11 11 0 1 0 22 0 a11 11 0 1 0 -22 0zM764.44 653.25 a11 11 0 1 0 22 0 a11 11 0 1 0 -22 0zM764.44 763.25 a11 11 0 1 0 22 0 a11 11 0 1 0 -22 0zM573.91 653.25 a11 11 0 1 0 22 0 a11 11 0 1 0 -22 0zM669.17 1258.25 a11 11 0 1 0 22 0 a11 11 0 1 0 -22 0zM764.44 1313.25 a11 11 0 1 0 22 0 a11 11 0 1 0 -22 0zM764.44 1423.25 a11 11 0 1 0 22 0 a11 11 0 1 0 -22 0zM669.17 1478.25 a11 11 0 1 0 22 0 a11 11 0 1 0 -22 0zM573.91 1423.25 a11 11 0 1 0 22 0 a11 11 0 1 0 -22 0zM573.91 1313.25 a11 11 0 1 0 22 0 a11 11 0 1 0 -22 0zM859.7 1478.25 a11 11 0 1 0 22 0 a11 11 0 1 0 -22 0zM859.7 1588.25 a11 11 0 1 0 22 0 a11 11 0 1 0 -22 0zM764.44 1643.25 a11 11 0 1 0 22 0 a11 11 0 1 0 -22 0zM669.17 1588.25 a11 11 0 1 0 22 0 a11 11 0 1 0 -22 0zM764.44 1753.25 a11 11 0 1 0 22 0 a11 11 0 1 0 -22 0zM859.7 1808.25 a11 11 0 1 0 22 0 a11 11 0 1 0 -22 0zM859.7 1918.25 a11 11 0 1 0 22 0 a11 11 0 1 0 -22 0zM764.44 1973.25 a11 11 0 1 0 22 0 a11 11 0 1 0 -22 0zM669.17 1918.25 a11 11 0 1 0 22 0 a11 11 0 1 0 -22 0zM669.17 1808.25 a11 11 0 1 0 22 0 a11 11 0 1 0 -22 0zM954.97 433.25 a11 11 0 1 0 22 0 a11 11 0 1 0 -22 0zM1050.23 488.25 a11 11 0 1 0 22 0 a11 11 0 1 0 -22 0zM1050.23 598.25 a11 11 0 1 0 22 0 a11 11 0 1 0 -22 0zM954.97 653.25 a11 11 0 1 0 22 0 a11 11 0 1 0 -22 0zM859.7 598.25 a11 11 0 1 0 22 0 a11 11 0 1 0 -22 0zM859.7 488.25 a11 11 0 1 0 22 0 a11 11 0 1 0 -22 0zM954.97 763.25 a11 11 0 1 0 22 0 a11 11 0 1 0 -22 0zM859.7 818.25 a11 11 0 1 0 22 0 a11 11 0 1 0 -22 0zM1145.5 103.25 a11 11 0 1 0 22 0 a11 11 0 1 0 -22 0zM1240.77 158.25 a11 11 0 1 0 22 0 a11 11 0 1 0 -22 0zM1240.77 268.25 a11 11 0 1 0 22 0 a11 11 0 1 0 -22 0zM1145.5 323.25 a11 11 0 1 0 22 0 a11 11 0 1 0 -22 0zM1050.23 268.25 a11 11 0 1 0 22 0 a11 11 0 1 0 -22 0zM1050.23 158.25 a11 11 0 1 0 22 0 a11 11 0 1 0 -22 0z" fill="rgba(30, 112, 0, 1)"></path><path d="M34.41 622.94L67.32 641.94L67.32 679.94L34.41 698.94L1.5 679.94L1.5 641.94zM1.5 907.94L34.41 926.94L34.41 964.94L1.5 983.94L-31.41 964.94L-31.41 926.94zM1.5 1021.94L34.41 1040.94L34.41 1078.94L1.5 1097.94L-31.41 1078.94L-31.41 1040.94zM34.41 1306.94L67.32 1325.94L67.32 1363.94L34.41 1382.94L1.5 1363.94L1.5 1325.94zM34.41 1876.94L67.32 1895.94L67.32 1933.94L34.41 1952.94L1.5 1933.94L1.5 1895.94zM100.23 280.94L133.14 299.94L133.14 337.94L100.23 356.94L67.32 337.94L67.32 299.94zM67.32 451.94L100.23 470.94L100.23 508.94L67.32 527.94L34.41 508.94L34.41 470.94zM67.32 1477.94L100.23 1496.94L100.23 1534.94L67.32 1553.94L34.41 1534.94L34.41 1496.94zM100.23 1534.94L133.14 1553.94L133.14 1591.94L100.23 1610.94L67.32 1591.94L67.32 1553.94zM67.32 1591.94L100.23 1610.94L100.23 1648.94L67.32 1667.94L34.41 1648.94L34.41 1610.94zM100.23 1648.94L133.14 1667.94L133.14 1705.94L100.23 1724.94L67.32 1705.94L67.32 1667.94zM100.23 1762.94L133.14 1781.94L133.14 1819.94L100.23 1838.94L67.32 1819.94L67.32 1781.94zM67.32 1819.94L100.23 1838.94L100.23 1876.94L67.32 1895.94L34.41 1876.94L34.41 1838.94zM100.23 1876.94L133.14 1895.94L133.14 1933.94L100.23 1952.94L67.32 1933.94L67.32 1895.94zM166.05 52.94L198.96 71.94L198.96 109.94L166.05 128.94L133.14 109.94L133.14 71.94zM133.14 337.94L166.05 356.94L166.05 394.94L133.14 413.94L100.23 394.94L100.23 356.94zM166.05 508.94L198.96 527.94L198.96 565.94L166.05 584.94L133.14 565.94L133.14 527.94zM133.14 793.94L166.05 812.94L166.05 850.94L133.14 869.94L100.23 850.94L100.23 812.94zM133.14 1591.94L166.05 1610.94L166.05 1648.94L133.14 1667.94L100.23 1648.94L100.23 1610.94zM166.05 1648.94L198.96 1667.94L198.96 1705.94L166.05 1724.94L133.14 1705.94L133.14 1667.94zM166.05 1762.94L198.96 1781.94L198.96 1819.94L166.05 1838.94L133.14 1819.94L133.14 1781.94zM198.96 565.94L231.87 584.94L231.87 622.94L198.96 641.94L166.05 622.94L166.05 584.94zM198.96 1135.94L231.87 1154.94L231.87 1192.94L198.96 1211.94L166.05 1192.94L166.05 1154.94zM198.96 1363.94L231.87 1382.94L231.87 1420.94L198.96 1439.94L166.05 1420.94L166.05 1382.94zM264.78 223.94L297.69 242.94L297.69 280.94L264.78 299.94L231.87 280.94L231.87 242.94zM297.69 280.94L330.6 299.94L330.6 337.94L297.69 356.94L264.78 337.94L264.78 299.94zM264.78 1933.94L297.69 1952.94L297.69 1990.94L264.78 2009.94L231.87 1990.94L231.87 1952.94zM330.6 223.94L363.51 242.94L363.51 280.94L330.6 299.94L297.69 280.94L297.69 242.94zM363.51 1078.94L396.42 1097.94L396.42 1135.94L363.51 1154.94L330.6 1135.94L330.6 1097.94zM330.6 1249.94L363.51 1268.94L363.51 1306.94L330.6 1325.94L297.69 1306.94L297.69 1268.94zM330.6 1477.94L363.51 1496.94L363.51 1534.94L330.6 1553.94L297.69 1534.94L297.69 1496.94zM363.51 1534.94L396.42 1553.94L396.42 1591.94L363.51 1610.94L330.6 1591.94L330.6 1553.94zM330.6 1591.94L363.51 1610.94L363.51 1648.94L330.6 1667.94L297.69 1648.94L297.69 1610.94zM363.51 1648.94L396.42 1667.94L396.42 1705.94L363.51 1724.94L330.6 1705.94L330.6 1667.94zM396.42 -4.06L429.33 14.94L429.33 52.94L396.42 71.94L363.51 52.94L363.51 14.94zM429.33 166.94L462.24 185.94L462.24 223.94L429.33 242.94L396.42 223.94L396.42 185.94zM396.42 793.94L429.33 812.94L429.33 850.94L396.42 869.94L363.51 850.94L363.51 812.94zM429.33 1762.94L462.24 1781.94L462.24 1819.94L429.33 1838.94L396.42 1819.94L396.42 1781.94zM396.42 1819.94L429.33 1838.94L429.33 1876.94L396.42 1895.94L363.51 1876.94L363.51 1838.94zM495.15 394.94L528.06 413.94L528.06 451.94L495.15 470.94L462.24 451.94L462.24 413.94zM462.24 793.94L495.15 812.94L495.15 850.94L462.24 869.94L429.33 850.94L429.33 812.94zM495.15 1078.94L528.06 1097.94L528.06 1135.94L495.15 1154.94L462.24 1135.94L462.24 1097.94zM462.24 1249.94L495.15 1268.94L495.15 1306.94L462.24 1325.94L429.33 1306.94L429.33 1268.94zM495.15 1876.94L528.06 1895.94L528.06 1933.94L495.15 1952.94L462.24 1933.94L462.24 1895.94zM528.06 109.94L560.97 128.94L560.97 166.94L528.06 185.94L495.15 166.94L495.15 128.94zM560.97 1306.94L593.88 1325.94L593.88 1363.94L560.97 1382.94L528.06 1363.94L528.06 1325.94zM560.97 1534.94L593.88 1553.94L593.88 1591.94L560.97 1610.94L528.06 1591.94L528.06 1553.94zM528.06 1819.94L560.97 1838.94L560.97 1876.94L528.06 1895.94L495.15 1876.94L495.15 1838.94zM626.79 280.94L659.7 299.94L659.7 337.94L626.79 356.94L593.88 337.94L593.88 299.94zM626.79 736.94L659.7 755.94L659.7 793.94L626.79 812.94L593.88 793.94L593.88 755.94zM626.79 964.94L659.7 983.94L659.7 1021.94L626.79 1040.94L593.88 1021.94L593.88 983.94zM659.7 -4.06L692.61 14.94L692.61 52.94L659.7 71.94L626.79 52.94L626.79 14.94zM659.7 451.94L692.61 470.94L692.61 508.94L659.7 527.94L626.79 508.94L626.79 470.94zM659.7 1021.94L692.61 1040.94L692.61 1078.94L659.7 1097.94L626.79 1078.94L626.79 1040.94zM659.7 1363.94L692.61 1382.94L692.61 1420.94L659.7 1439.94L626.79 1420.94L626.79 1382.94zM758.43 280.94L791.34 299.94L791.34 337.94L758.43 356.94L725.52 337.94L725.52 299.94zM791.34 -4.06L824.25 14.94L824.25 52.94L791.34 71.94L758.43 52.94L758.43 14.94zM791.34 337.94L824.25 356.94L824.25 394.94L791.34 413.94L758.43 394.94L758.43 356.94zM824.25 508.94L857.16 527.94L857.16 565.94L824.25 584.94L791.34 565.94L791.34 527.94zM791.34 1591.94L824.25 1610.94L824.25 1648.94L791.34 1667.94L758.43 1648.94L758.43 1610.94zM824.25 1648.94L857.16 1667.94L857.16 1705.94L824.25 1724.94L791.34 1705.94L791.34 1667.94zM890.07 280.94L922.98 299.94L922.98 337.94L890.07 356.94L857.16 337.94L857.16 299.94zM890.07 850.94L922.98 869.94L922.98 907.94L890.07 926.94L857.16 907.94L857.16 869.94zM857.16 907.94L890.07 926.94L890.07 964.94L857.16 983.94L824.25 964.94L824.25 926.94zM857.16 1933.94L890.07 1952.94L890.07 1990.94L857.16 2009.94L824.25 1990.94L824.25 1952.94zM955.89 52.94L988.8 71.94L988.8 109.94L955.89 128.94L922.98 109.94L922.98 71.94zM922.98 679.94L955.89 698.94L955.89 736.94L922.98 755.94L890.07 736.94L890.07 698.94zM955.89 964.94L988.8 983.94L988.8 1021.94L955.89 1040.94L922.98 1021.94L922.98 983.94zM955.89 1534.94L988.8 1553.94L988.8 1591.94L955.89 1610.94L922.98 1591.94L922.98 1553.94zM922.98 1819.94L955.89 1838.94L955.89 1876.94L922.98 1895.94L890.07 1876.94L890.07 1838.94zM955.89 1990.94L988.8 2009.94L988.8 2047.94L955.89 2066.94L922.98 2047.94L922.98 2009.94zM1021.71 394.94L1054.62 413.94L1054.62 451.94L1021.71 470.94L988.8 451.94L988.8 413.94zM1021.71 964.94L1054.62 983.94L1054.62 1021.94L1021.71 1040.94L988.8 1021.94L988.8 983.94zM988.8 1021.94L1021.71 1040.94L1021.71 1078.94L988.8 1097.94L955.89 1078.94L955.89 1040.94zM988.8 1249.94L1021.71 1268.94L1021.71 1306.94L988.8 1325.94L955.89 1306.94L955.89 1268.94z" stroke="rgba(28, 113, 0, 0.93)" stroke-width="2"></path></g><defs><mask id="SvgjsMask1155"><rect width="1000" height="2000" fill="#ffffff"></rect></mask></defs></svg>