<svg xmlns="http://www.w3.org/2000/svg" version="1.1" xmlns:xlink="http://www.w3.org/1999/xlink" xmlns:svgjs="http://svgjs.dev/svgjs" width="1000" height="2000" preserveAspectRatio="none" viewBox="0 0 1000 2000"><g mask="url(&quot;#SvgjsMask1105&quot;)" fill="none"><path d="M108.97 -35.12L204.24 19.88L204.24 129.88L108.97 184.88L13.7 129.88L13.7 19.88zM204.24 459.88L299.5 514.88L299.5 624.88L204.24 679.88L108.97 624.88L108.97 514.88zM108.97 624.88L204.24 679.88L204.24 789.88L108.97 844.88L13.7 789.88L13.7 679.88zM108.97 1284.88L204.24 1339.88L204.24 1449.88L108.97 1504.88L13.7 1449.88L13.7 1339.88zM204.24 1449.88L299.5 1504.88L299.5 1614.88L204.24 1669.88L108.97 1614.88L108.97 1504.88zM490.03 -35.12L585.3 19.88L585.3 129.88L490.03 184.88L394.77 129.88L394.77 19.88zM490.03 294.88L585.3 349.88L585.3 459.88L490.03 514.88L394.77 459.88L394.77 349.88zM585.3 789.88L680.56 844.88L680.56 954.88L585.3 1009.88L490.03 954.88L490.03 844.88zM585.3 1449.88L680.56 1504.88L680.56 1614.88L585.3 1669.88L490.03 1614.88L490.03 1504.88zM680.56 1614.88L775.83 1669.88L775.83 1779.88L680.56 1834.88L585.3 1779.88L585.3 1669.88zM966.36 459.88L1061.63 514.88L1061.63 624.88L966.36 679.88L871.09 624.88L871.09 514.88zM871.09 624.88L966.36 679.88L966.36 789.88L871.09 844.88L775.83 789.88L775.83 679.88zM871.09 1614.88L966.36 1669.88L966.36 1779.88L871.09 1834.88L775.83 1779.88L775.83 1669.88zM1061.63 1614.88L1156.89 1669.88L1156.89 1779.88L1061.63 1834.88L966.36 1779.88L966.36 1669.88z" stroke="rgba(30, 112, 0, 1)" stroke-width="2"></path><path d="M97.97 -35.12 a11 11 0 1 0 22 0 a11 11 0 1 0 -22 0zM193.24 19.88 a11 11 0 1 0 22 0 a11 11 0 1 0 -22 0zM193.24 129.88 a11 11 0 1 0 22 0 a11 11 0 1 0 -22 0zM97.97 184.88 a11 11 0 1 0 22 0 a11 11 0 1 0 -22 0zM2.7 129.88 a11 11 0 1 0 22 0 a11 11 0 1 0 -22 0zM2.7 19.88 a11 11 0 1 0 22 0 a11 11 0 1 0 -22 0zM193.24 459.88 a11 11 0 1 0 22 0 a11 11 0 1 0 -22 0zM288.5 514.88 a11 11 0 1 0 22 0 a11 11 0 1 0 -22 0zM288.5 624.88 a11 11 0 1 0 22 0 a11 11 0 1 0 -22 0zM193.24 679.88 a11 11 0 1 0 22 0 a11 11 0 1 0 -22 0zM97.97 624.88 a11 11 0 1 0 22 0 a11 11 0 1 0 -22 0zM97.97 514.88 a11 11 0 1 0 22 0 a11 11 0 1 0 -22 0zM193.24 789.88 a11 11 0 1 0 22 0 a11 11 0 1 0 -22 0zM97.97 844.88 a11 11 0 1 0 22 0 a11 11 0 1 0 -22 0zM2.7 789.88 a11 11 0 1 0 22 0 a11 11 0 1 0 -22 0zM2.7 679.88 a11 11 0 1 0 22 0 a11 11 0 1 0 -22 0zM97.97 1284.88 a11 11 0 1 0 22 0 a11 11 0 1 0 -22 0zM193.24 1339.88 a11 11 0 1 0 22 0 a11 11 0 1 0 -22 0zM193.24 1449.88 a11 11 0 1 0 22 0 a11 11 0 1 0 -22 0zM97.97 1504.88 a11 11 0 1 0 22 0 a11 11 0 1 0 -22 0zM2.7 1449.88 a11 11 0 1 0 22 0 a11 11 0 1 0 -22 0zM2.7 1339.88 a11 11 0 1 0 22 0 a11 11 0 1 0 -22 0zM288.5 1504.88 a11 11 0 1 0 22 0 a11 11 0 1 0 -22 0zM288.5 1614.88 a11 11 0 1 0 22 0 a11 11 0 1 0 -22 0zM193.24 1669.88 a11 11 0 1 0 22 0 a11 11 0 1 0 -22 0zM97.97 1614.88 a11 11 0 1 0 22 0 a11 11 0 1 0 -22 0zM479.03 -35.12 a11 11 0 1 0 22 0 a11 11 0 1 0 -22 0zM574.3 19.88 a11 11 0 1 0 22 0 a11 11 0 1 0 -22 0zM574.3 129.88 a11 11 0 1 0 22 0 a11 11 0 1 0 -22 0zM479.03 184.88 a11 11 0 1 0 22 0 a11 11 0 1 0 -22 0zM383.77 129.88 a11 11 0 1 0 22 0 a11 11 0 1 0 -22 0zM383.77 19.88 a11 11 0 1 0 22 0 a11 11 0 1 0 -22 0zM479.03 294.88 a11 11 0 1 0 22 0 a11 11 0 1 0 -22 0zM574.3 349.88 a11 11 0 1 0 22 0 a11 11 0 1 0 -22 0zM574.3 459.88 a11 11 0 1 0 22 0 a11 11 0 1 0 -22 0zM479.03 514.88 a11 11 0 1 0 22 0 a11 11 0 1 0 -22 0zM383.77 459.88 a11 11 0 1 0 22 0 a11 11 0 1 0 -22 0zM383.77 349.88 a11 11 0 1 0 22 0 a11 11 0 1 0 -22 0zM574.3 789.88 a11 11 0 1 0 22 0 a11 11 0 1 0 -22 0zM669.56 844.88 a11 11 0 1 0 22 0 a11 11 0 1 0 -22 0zM669.56 954.88 a11 11 0 1 0 22 0 a11 11 0 1 0 -22 0zM574.3 1009.88 a11 11 0 1 0 22 0 a11 11 0 1 0 -22 0zM479.03 954.88 a11 11 0 1 0 22 0 a11 11 0 1 0 -22 0zM479.03 844.88 a11 11 0 1 0 22 0 a11 11 0 1 0 -22 0zM574.3 1449.88 a11 11 0 1 0 22 0 a11 11 0 1 0 -22 0zM669.56 1504.88 a11 11 0 1 0 22 0 a11 11 0 1 0 -22 0zM669.56 1614.88 a11 11 0 1 0 22 0 a11 11 0 1 0 -22 0zM574.3 1669.88 a11 11 0 1 0 22 0 a11 11 0 1 0 -22 0zM479.03 1614.88 a11 11 0 1 0 22 0 a11 11 0 1 0 -22 0zM479.03 1504.88 a11 11 0 1 0 22 0 a11 11 0 1 0 -22 0zM764.83 1669.88 a11 11 0 1 0 22 0 a11 11 0 1 0 -22 0zM764.83 1779.88 a11 11 0 1 0 22 0 a11 11 0 1 0 -22 0zM669.56 1834.88 a11 11 0 1 0 22 0 a11 11 0 1 0 -22 0zM574.3 1779.88 a11 11 0 1 0 22 0 a11 11 0 1 0 -22 0zM955.36 459.88 a11 11 0 1 0 22 0 a11 11 0 1 0 -22 0zM1050.63 514.88 a11 11 0 1 0 22 0 a11 11 0 1 0 -22 0zM1050.63 624.88 a11 11 0 1 0 22 0 a11 11 0 1 0 -22 0zM955.36 679.88 a11 11 0 1 0 22 0 a11 11 0 1 0 -22 0zM860.09 624.88 a11 11 0 1 0 22 0 a11 11 0 1 0 -22 0zM860.09 514.88 a11 11 0 1 0 22 0 a11 11 0 1 0 -22 0zM955.36 789.88 a11 11 0 1 0 22 0 a11 11 0 1 0 -22 0zM860.09 844.88 a11 11 0 1 0 22 0 a11 11 0 1 0 -22 0zM764.83 789.88 a11 11 0 1 0 22 0 a11 11 0 1 0 -22 0zM764.83 679.88 a11 11 0 1 0 22 0 a11 11 0 1 0 -22 0zM860.09 1614.88 a11 11 0 1 0 22 0 a11 11 0 1 0 -22 0zM955.36 1669.88 a11 11 0 1 0 22 0 a11 11 0 1 0 -22 0zM955.36 1779.88 a11 11 0 1 0 22 0 a11 11 0 1 0 -22 0zM860.09 1834.88 a11 11 0 1 0 22 0 a11 11 0 1 0 -22 0zM1050.63 1614.88 a11 11 0 1 0 22 0 a11 11 0 1 0 -22 0zM1145.89 1669.88 a11 11 0 1 0 22 0 a11 11 0 1 0 -22 0zM1145.89 1779.88 a11 11 0 1 0 22 0 a11 11 0 1 0 -22 0zM1050.63 1834.88 a11 11 0 1 0 22 0 a11 11 0 1 0 -22 0z" fill="rgba(30, 112, 0, 1)"></path><path d="M83.06 487.38L141.95 521.38L141.95 589.38L83.06 623.38L24.17 589.38L24.17 521.38zM24.17 589.38L83.06 623.38L83.06 691.38L24.17 725.38L-34.72 691.38L-34.72 623.38zM200.84 487.38L259.74 521.38L259.74 589.38L200.84 623.38L141.95 589.38L141.95 521.38zM200.84 1711.38L259.74 1745.38L259.74 1813.38L200.84 1847.38L141.95 1813.38L141.95 1745.38zM259.74 1609.38L318.63 1643.38L318.63 1711.38L259.74 1745.38L200.84 1711.38L200.84 1643.38zM377.52 1405.38L436.41 1439.38L436.41 1507.38L377.52 1541.38L318.63 1507.38L318.63 1439.38zM495.3 1201.38L554.19 1235.38L554.19 1303.38L495.3 1337.38L436.41 1303.38L436.41 1235.38zM554.19 1303.38L613.08 1337.38L613.08 1405.38L554.19 1439.38L495.3 1405.38L495.3 1337.38zM671.98 1915.38L730.87 1949.38L730.87 2017.38L671.98 2051.38L613.08 2017.38L613.08 1949.38zM789.76 487.38L848.65 521.38L848.65 589.38L789.76 623.38L730.87 589.38L730.87 521.38zM730.87 997.38L789.76 1031.38L789.76 1099.38L730.87 1133.38L671.98 1099.38L671.98 1031.38zM730.87 1609.38L789.76 1643.38L789.76 1711.38L730.87 1745.38L671.98 1711.38L671.98 1643.38zM789.76 1711.38L848.65 1745.38L848.65 1813.38L789.76 1847.38L730.87 1813.38L730.87 1745.38zM730.87 1813.38L789.76 1847.38L789.76 1915.38L730.87 1949.38L671.98 1915.38L671.98 1847.38zM848.65 181.38L907.54 215.38L907.54 283.38L848.65 317.38L789.76 283.38L789.76 215.38zM907.54 487.38L966.43 521.38L966.43 589.38L907.54 623.38L848.65 589.38L848.65 521.38zM907.54 1099.38L966.43 1133.38L966.43 1201.38L907.54 1235.38L848.65 1201.38L848.65 1133.38zM907.54 1711.38L966.43 1745.38L966.43 1813.38L907.54 1847.38L848.65 1813.38L848.65 1745.38zM966.43 385.38L1025.32 419.38L1025.32 487.38L966.43 521.38L907.54 487.38L907.54 419.38z" stroke="rgba(28, 113, 0, 0.93)" stroke-width="2"></path></g><defs><mask id="SvgjsMask1105"><rect width="1000" height="2000" fill="#ffffff"></rect></mask></defs></svg>